<svg width="10" height="15" viewBox="0 0 10 15" fill="none" xmlns="http://www.w3.org/2000/svg">
<path fill-rule="evenodd" clip-rule="evenodd" d="M9.05134 8.66204C9.15058 8.60134 9.2443 8.52804 9.33019 8.44215C9.63058 8.14176 9.77693 7.74566 9.76924 7.35201C9.77693 6.95836 9.63058 6.56226 9.33019 6.26186C9.2443 6.17597 9.15058 6.10267 9.05134 6.04197L3.4487 0.43934C2.86292 -0.146446 1.91317 -0.146447 1.32738 0.43934C0.741597 1.02513 0.741598 1.97487 1.32738 2.56066L6.11873 7.35201L1.32738 12.1434C0.741598 12.7291 0.741597 13.6789 1.32738 14.2647C1.91317 14.8505 2.86292 14.8505 3.4487 14.2647L9.05134 8.66204Z" fill="#C0BBC5"/>
</svg>
